# xmcd
#
# Track frame offsets: 
#        150
#        12103
#        27710
#        43296
#        58745
#        76435
#        95805
#        110084
#        125458
#        142954
#
# Disc length: 2070 seconds
#
# Revision: 0
# Processed by: cddbd v1.5.2PL0 Copyright (c) Steve Scherf et al.
# Submitted via: ExactAudioCopy v0.99pb4
#
DISCID=8f08140a
DTITLE=Mama´s Blues Joint - Blues In Many Colors
DYEAR=2009
DGENRE=Blues
TTITLE0=Soulkitchen
TTITLE1=You Got Me Where You Want Me
TTITLE2=I Tried
TTITLE3=Running Low On Fuel
TTITLE4=Hit Me Hard (With All You´Got)
TTITLE5=Your Goog Thing
TTITLE6=Give Some
TTITLE7=Rollin´ Man
TTITLE8=Let It Rain
TTITLE9=Eat You Up
EXTD=
EXTT0=
EXTT1=
EXTT2=
EXTT3=
EXTT4=
EXTT5=
EXTT6=
EXTT7=
EXTT8=
EXTT9=
PLAYORDER=
